<svg width="1495" height="205" viewBox="0 0 1495 205" fill="none" xmlns="http://www.w3.org/2000/svg">
<path d="M0.864002 1.39999H10.656V194.072H128.736V203H0.864002V1.39999ZM247.79 204.152C228.206 204.152 210.446 199.736 194.51 190.904C178.766 182.072 166.382 169.88 157.358 154.328C148.334 138.776 143.822 121.4 143.822 102.2C143.822 83 148.334 65.624 157.358 50.072C166.382 34.52 178.766 22.328 194.51 13.496C210.446 4.66398 228.206 0.247984 247.79 0.247984C267.374 0.247984 285.134 4.66398 301.07 13.496C317.006 22.328 329.486 34.52 338.51 50.072C347.534 65.624 352.046 83 352.046 102.2C352.046 121.4 347.534 138.776 338.51 154.328C329.486 169.88 317.006 182.072 301.07 190.904C285.134 199.736 267.374 204.152 247.79 204.152ZM247.79 195.224C265.454 195.224 281.486 191.192 295.886 183.128C310.286 175.064 321.614 163.928 329.87 149.72C338.126 135.512 342.254 119.672 342.254 102.2C342.254 84.728 338.126 68.888 329.87 54.68C321.614 40.472 310.286 29.336 295.886 21.272C281.486 13.208 265.454 9.17599 247.79 9.17599C230.126 9.17599 214.094 13.208 199.694 21.272C185.486 29.336 174.254 40.472 165.998 54.68C157.742 68.888 153.614 84.728 153.614 102.2C153.614 119.672 157.742 135.512 165.998 149.72C174.254 163.928 185.486 175.064 199.694 183.128C214.094 191.192 230.126 195.224 247.79 195.224ZM526.041 143.96H405.369L378.297 203H367.641L460.953 1.39999H470.457L563.769 203H553.113L526.041 143.96ZM522.297 135.608L465.849 12.632L409.113 135.608H522.297ZM603.02 1.39999H680.78C701.708 1.39999 720.236 5.71999 736.364 14.36C752.684 23 765.26 35 774.092 50.36C783.116 65.528 787.628 82.808 787.628 102.2C787.628 121.592 783.116 138.968 774.092 154.328C765.26 169.496 752.684 181.4 736.364 190.04C720.236 198.68 701.708 203 680.78 203H603.02V1.39999ZM680.204 194.072C699.788 194.072 716.876 190.136 731.468 182.264C746.252 174.392 757.676 163.544 765.74 149.72C773.804 135.704 777.836 119.864 777.836 102.2C777.836 84.536 773.804 68.792 765.74 54.968C757.676 40.952 746.252 30.008 731.468 22.136C716.876 14.264 699.788 10.328 680.204 10.328H612.812V194.072H680.204ZM840.958 1.39999H850.75V203H840.958V1.39999ZM1085.48 1.39999V203H1077.42L934.281 19.256V203H924.489V1.39999H932.553L1075.69 185.144V1.39999H1085.48ZM1305.06 103.64H1314.28V178.232C1305.44 186.68 1294.88 193.112 1282.6 197.528C1270.5 201.944 1257.54 204.152 1243.72 204.152C1223.94 204.152 1206.08 199.736 1190.15 190.904C1174.21 182.072 1161.64 169.88 1152.42 154.328C1143.4 138.776 1138.88 121.4 1138.88 102.2C1138.88 83 1143.4 65.624 1152.42 50.072C1161.64 34.52 1174.21 22.328 1190.15 13.496C1206.08 4.66398 1223.94 0.247984 1243.72 0.247984C1258.12 0.247984 1271.36 2.45598 1283.46 6.87198C1295.56 11.288 1305.92 17.912 1314.56 26.744L1308.8 33.368C1292.1 17.24 1270.5 9.17599 1244 9.17599C1225.96 9.17599 1209.64 13.304 1195.04 21.56C1180.64 29.624 1169.32 40.76 1161.06 54.968C1152.8 69.176 1148.68 84.92 1148.68 102.2C1148.68 119.48 1152.8 135.224 1161.06 149.432C1169.32 163.64 1180.64 174.872 1195.04 183.128C1209.64 191.192 1225.96 195.224 1244 195.224C1269.16 195.224 1289.51 188.216 1305.06 174.2V103.64ZM1375.67 203.864C1372.98 203.864 1370.68 203 1368.76 201.272C1367.03 199.352 1366.17 197.048 1366.17 194.36C1366.17 191.672 1367.13 189.464 1369.05 187.736C1370.97 185.816 1373.18 184.856 1375.67 184.856C1378.36 184.856 1380.57 185.816 1382.3 187.736C1384.22 189.464 1385.18 191.672 1385.18 194.36C1385.18 197.048 1384.22 199.352 1382.3 201.272C1380.57 203 1378.36 203.864 1375.67 203.864ZM1430.52 203.864C1427.83 203.864 1425.52 203 1423.6 201.272C1421.88 199.352 1421.01 197.048 1421.01 194.36C1421.01 191.672 1421.97 189.464 1423.89 187.736C1425.81 185.816 1428.02 184.856 1430.52 184.856C1433.2 184.856 1435.41 185.816 1437.14 187.736C1439.06 189.464 1440.02 191.672 1440.02 194.36C1440.02 197.048 1439.06 199.352 1437.14 201.272C1435.41 203 1433.2 203.864 1430.52 203.864ZM1485.36 203.864C1482.67 203.864 1480.37 203 1478.45 201.272C1476.72 199.352 1475.86 197.048 1475.86 194.36C1475.86 191.672 1476.82 189.464 1478.74 187.736C1480.66 185.816 1482.86 184.856 1485.36 184.856C1488.05 184.856 1490.26 185.816 1491.98 187.736C1493.9 189.464 1494.86 191.672 1494.86 194.36C1494.86 197.048 1493.9 199.352 1491.98 201.272C1490.26 203 1488.05 203.864 1485.36 203.864Z" fill="black"/>
</svg>
